<svg id="Layer_3" enable-background="new 0 0 64 64" height="512" viewBox="0 0 64 64" width="512" xmlns="http://www.w3.org/2000/svg"><g><path d="m15 27h14v16h-14z"/><path d="m51 47.279v-18.558l-4 2.8v12.958z"/><path d="m45 46v7c0 2.206-1.794 4-4 4s-4-1.794-4-4v-7.35c-2.327-.826-4-3.043-4-5.65v-4c0-3.309 2.691-6 6-6h6.685l7.315-5.121v-21.879h-42v55c0 1.13-.391 2.162-1.026 3h38.026c2.757 0 5-2.243 5-5v-4.879l-7.315-5.121zm-32-40c0-.552.448-1 1-1h36c.552 0 1 .448 1 1v16c0 .552-.448 1-1 1h-36c-.552 0-1-.448-1-1zm0 20c0-.552.448-1 1-1h16c.552 0 1 .448 1 1v18c0 .552-.448 1-1 1h-16c-.552 0-1-.448-1-1zm22 31h-22v-2h22zm0-4h-22v-2h22zm0-4h-22v-2h22z"/><path d="m49 7h-34v14h34zm-25 11c0 .446-.295.838-.724.961-.091.026-.184.039-.276.039-.338 0-.662-.172-.848-.47l-3.152-5.043v5.513h-2v-9c0-.446.295-.838.724-.961.429-.122.887.053 1.124.432l3.152 5.042v-5.513h2zm7-7h-3v2h3v2h-3v2h3v2h-4c-.552 0-1-.448-1-1v-8c0-.552.448-1 1-1h4zm8 7c0 .479-.34.891-.811.982-.064.012-.127.018-.189.018-.402 0-.774-.244-.928-.628l-1.072-2.68-1.071 2.679c-.178.445-.647.699-1.118.61-.471-.09-.811-.502-.811-.981v-9h2v3.808l.071-.179c.153-.38.52-.629.929-.629s.776.249.929.628l.071.18v-3.808h2zm8-7h-3c-.551 0-1 .449-1 1s.449 1 1 1c1.654 0 3 1.346 3 3s-1.346 3-3 3h-3v-2h3c.551 0 1-.449 1-1s-.449-1-1-1c-1.654 0-3-1.346-3-3s1.346-3 3-3h3z"/><path d="m3 58c0 1.654 1.346 3 3 3s3-1.346 3-3v-49h-6z"/><path d="m53 48.68 2 1.4v-24.16l-2 1.4z"/><path d="m39 53c0 1.103.897 2 2 2s2-.897 2-2v-7h-4z"/><path d="m45 32h-6c-2.206 0-4 1.794-4 4v4c0 2.206 1.794 4 4 4h6z"/><path d="m59 35h4v2h-4z"/><path d="m58.379 29.5h4.243v2h-4.243z" transform="matrix(.707 -.707 .707 .707 -3.847 51.713)"/><path d="m59.5 39.379h2v4.243h-2z" transform="matrix(.707 -.707 .707 .707 -11.625 54.935)"/></g></svg>